<svg xmlns="http://www.w3.org/2000/svg" viewBox="0 0 64 64">
  <!-- 톱니바퀴 설정 아이콘 -->
  <defs>
    <linearGradient id="gearGrad" x1="0%" y1="0%" x2="100%" y2="100%">
      <stop offset="0%" style="stop-color:#888"/>
      <stop offset="100%" style="stop-color:#555"/>
    </linearGradient>
  </defs>

  <!-- 톱니바퀴 -->
  <path d="M32 8 L36 8 L38 14 L44 16 L50 12 L54 16 L50 22 L52 28 L58 30 L58 34 L52 36 L50 42 L54 48 L50 52 L44 48 L38 50 L36 56 L28 56 L26 50 L20 48 L14 52 L10 48 L14 42 L12 36 L6 34 L6 30 L12 28 L14 22 L10 16 L14 12 L20 16 L26 14 L28 8 Z"
        fill="url(#gearGrad)"
        stroke="#444"
        stroke-width="1.5"/>

  <!-- 중앙 원 -->
  <circle cx="32" cy="32" r="10" fill="#1a1a1a" stroke="#444" stroke-width="1.5"/>
  <circle cx="32" cy="32" r="5" fill="#666"/>
</svg>
